<svg width="407" height="504" viewBox="0 0 407 504" fill="none" xmlns="http://www.w3.org/2000/svg">
<path fill-rule="evenodd" clip-rule="evenodd" d="M120 0H265L263.104 1.50965C265.954 1.06189 268.244 0.979958 270.267 1.41476C335.158 15.6905 383.587 58.5178 401.01 117.088C406.498 135.633 407.321 149.376 406.909 215.15L406.498 275.855H406V292.515L337.182 253L337 253.316V212H337.108L336.942 192.736C336.393 152.711 335.981 143.905 334.061 137.234C323.908 103.613 297.568 78.7971 262.035 69.4579C251.883 66.7895 247.904 66.6561 163.258 66.5227L126 66.4664V66H68V107H68.3212V222.889C68.3212 312.145 68.87 375.118 69.6931 379.788C73.3973 402.336 92.0553 422.882 117.436 432.488L126.627 435.957L204.964 436.357C291.257 436.758 293.452 436.624 309.503 428.752C325.829 420.747 337.902 405.671 341.88 388.594C345.722 372.45 344.076 362.977 336.256 355.373L331.454 350.703L328.436 358.575C319.381 382.857 297.156 400.868 271.639 404.737C265.053 405.671 244.475 405.938 212.646 405.671C167.51 405.137 162.983 404.871 155.163 402.336C137.466 396.599 122.786 383.79 114.28 366.713C107.695 353.371 106.186 345.5 106.186 323.219L106.049 303.873L135.682 303.473L165.453 303.206L165.864 314.146C166.55 329.223 169.568 334.559 179.995 339.763C187.815 343.632 188.226 343.765 215.116 344.299C230.07 344.699 247.081 344.432 252.981 343.899C262.584 343.098 264.093 342.564 268.209 338.562C271.776 335.093 272.736 333.092 272.736 328.956C272.736 322.685 270.404 319.216 262.31 313.88C256.685 310.01 207.982 285.995 168.471 267.45C146.795 257.31 136.505 250.639 126.216 239.833C112.36 225.557 105.5 207.545 105.363 186.199C105.363 173.257 107.421 164.451 113.183 152.444C122.375 133.632 144.051 116.554 166.413 110.417C176.565 107.615 235.969 106.014 248.042 108.149C267.66 111.751 282.065 121.358 289.336 135.767C292.354 141.904 292.629 144.172 293.04 166.853L293.589 191.135L263.544 190.868L233.637 190.468L233.225 182.063C232.676 170.322 232.128 170.188 204.552 170.322C183.287 170.455 182.19 170.589 179.172 173.524C176.565 175.925 176.016 177.927 176.016 184.331C176.016 191.002 176.565 192.87 179.446 195.805C181.367 197.806 199.888 207.679 220.603 217.952C278.635 246.37 350.386 282.793 362.322 289.598C366.045 291.732 370.037 294.541 373.971 297.702L406 316.093V354.248C406.325 357.904 406.572 361.97 406.772 366.58C408.281 405.404 399.226 432.755 376.316 459.705C360.401 478.384 333.375 494.661 307.72 500.932C295.51 504 294.412 504 207.57 504H119.768L106.46 500.398C56.5228 487.056 19.2068 452.634 4.25293 406.338L0.411574 394.597L0.00234235 210.998L0 211V209.947V120C0 53.7257 53.7258 0 120 0Z" fill="white"/>
</svg>
